<?xml version="1.0" encoding="UTF-8"?>
<svg id="Layer_1" data-name="Layer 1" xmlns="http://www.w3.org/2000/svg" viewBox="0 0 604.6 577.49">
  <defs>
    <style>
      .cls-1 {
        fill: #231f20;
        stroke-width: 0px;
      }
    </style>
  </defs>
  <g>
    <path class="cls-1" d="M106.06,343.2v24.83h-6.11c0-1.89-.02-3.54-.07-4.94s-.14-2.53-.29-3.39-.37-1.5-.68-1.91-.71-.61-1.22-.61h-1.15v27.96c0,1.84.24,3.09.71,3.75s1.25,1,2.34,1v15.72h-17.04v-15.72c1.09,0,1.87-.33,2.33-1s.7-1.91.7-3.75v-27.96h-1.13c-.51,0-.91.2-1.22.61s-.53,1.05-.69,1.91-.25,1.99-.29,3.39-.06,3.04-.06,4.94h-6.13v-24.83h30Z"/>
    <path class="cls-1" d="M127.42,357.01c1.64,0,2.96.55,3.99,1.65s1.82,2.49,2.4,4.17.97,3.5,1.18,5.47.32,3.81.32,5.53v11.91c0,1.5.11,2.56.34,3.2s.67.95,1.33.95h1v15.72h-12.86v-27.07c0-1.1-.06-1.98-.18-2.65s-.27-1.17-.45-1.53-.38-.59-.6-.7-.44-.17-.65-.17c-.81,0-1.41.54-1.8,1.61s-.59,2.6-.59,4.58v6.06c0,1.5.11,2.56.34,3.2s.67.95,1.33.95h1.38v15.72h-15.91v-15.72h1.1c.51,0,.9-.37,1.16-1.12s.4-1.65.4-2.69l-.04-22.37c0-1.64-.23-2.85-.68-3.62s-.98-1.17-1.57-1.17h-.37v-15.72h12.86v15.72c0,.54-.07,1.47-.22,2.8s-.43,2.66-.84,3.98l.37.42c.67-2.77,1.57-4.98,2.69-6.63s2.65-2.48,4.57-2.48Z"/>
    <path class="cls-1" d="M149.72,384.89c.05,4.21.4,7.11,1.05,8.71s1.58,2.39,2.8,2.39c.41,0,.81-.13,1.2-.4s.75-.71,1.09-1.31.62-1.41.86-2.41.4-2.27.47-3.79h6.77c-.25,3.64-.7,6.69-1.37,9.15s-1.51,4.44-2.56,5.95-2.25,2.6-3.63,3.26-2.92,1-4.62,1-3.39-.51-4.93-1.53-2.88-2.56-4.04-4.64-2.07-4.69-2.72-7.84c-.66-3.15-.99-6.9-.99-11.25s.31-7.8.93-10.93,1.49-5.75,2.61-7.86c1.12-2.1,2.45-3.69,3.98-4.77s3.21-1.61,5.05-1.61c2.26,0,4.19.68,5.82,2.03s2.95,3.25,3.98,5.68,1.78,5.35,2.27,8.77c.48,3.42.71,7.22.69,11.4h-14.7ZM152.47,368.45c-.87,0-1.51.7-1.92,2.1s-.69,3.71-.83,6.93h5.45c-.07-2.77-.33-4.96-.78-6.59s-1.08-2.44-1.91-2.44Z"/>
    <path class="cls-1" d="M207.11,358.75c0,9.04-2.06,13.98-6.19,14.83v.47c2.16.11,3.85,1.45,5.09,4.02,1.24,2.57,1.86,6.28,1.86,11.14,0,2.03-.11,4.03-.32,6s-.67,3.71-1.37,5.23-1.71,2.77-3.03,3.73-3.09,1.44-5.32,1.44h-20.44v-15.72c1.09,0,1.87-.33,2.34-1s.71-1.91.71-3.75v-21.44c0-1.86-.24-3.13-.71-3.79s-1.25-1-2.34-1v-15.72h21.73c1.71,0,3.09.44,4.14,1.31s1.86,2.03,2.43,3.47.95,3.1,1.13,4.98c.19,1.88.28,3.81.28,5.78ZM191.41,370.27h2.81c.77,0,1.32-.56,1.66-1.67s.51-2.46.51-4.05c0-1.5-.17-2.81-.51-3.94s-.9-1.69-1.66-1.69h-2.81v11.35ZM194.17,389.89c1.04,0,1.76-.46,2.16-1.38s.59-2.45.59-4.6-.2-3.71-.59-4.68-1.12-1.46-2.16-1.46h-2.77v12.12h2.77Z"/>
    <path class="cls-1" d="M221.2,358.92l-.32,11.65h.32c.43-4.46,1.16-7.84,2.17-10.13,1.01-2.29,2.32-3.43,3.93-3.43.95,0,1.77.35,2.46,1.04s1.24,1.62,1.66,2.78.72,2.49.91,4,.28,3.07.28,4.68c0,1.33-.09,2.64-.26,3.94s-.45,2.47-.84,3.52c-.38,1.05-.88,1.89-1.49,2.52s-1.36.95-2.25.95c-1.24,0-2.21-.72-2.93-2.16s-1.07-3.18-1.07-5.21c0-.99.05-1.83.15-2.52s.2-1.26.31-1.69.18-.76.21-.95,0-.3-.13-.3c-.26,0-.54.68-.85,2.03s-.46,3.49-.46,6.4v9.7c0,1.5.11,2.56.34,3.2s.67.95,1.33.95h1.12v15.72h-15.65v-15.72h1.1c.51,0,.9-.37,1.16-1.12s.4-1.65.4-2.69v-8.05c0-1.33-.17-2.22-.51-2.69s-.73-.7-1.16-.7h-.99v-15.72h11.04Z"/>
    <path class="cls-1" d="M244.28,384.89c.05,4.21.4,7.11,1.05,8.71s1.58,2.39,2.8,2.39c.41,0,.81-.13,1.2-.4s.75-.71,1.09-1.31.62-1.41.86-2.41.4-2.27.47-3.79h6.77c-.25,3.64-.7,6.69-1.37,9.15-.66,2.46-1.51,4.44-2.56,5.95s-2.25,2.6-3.63,3.26-2.92,1-4.62,1-3.39-.51-4.93-1.53-2.88-2.56-4.04-4.64-2.07-4.69-2.72-7.84-.99-6.9-.99-11.25.31-7.8.93-10.93,1.49-5.75,2.61-7.86,2.45-3.69,3.98-4.77,3.21-1.61,5.05-1.61c2.26,0,4.19.68,5.82,2.03s2.95,3.25,3.98,5.68,1.78,5.35,2.27,8.77c.48,3.42.71,7.22.69,11.4h-14.7ZM247.03,368.45c-.87,0-1.51.7-1.92,2.1s-.69,3.71-.83,6.93h5.45c-.07-2.77-.33-4.96-.78-6.59s-1.08-2.44-1.91-2.44Z"/>
    <path class="cls-1" d="M270.47,364.8c-.63,0-1.17.11-1.63.32s-.84.46-1.16.74-.59.6-.8.95-.4.67-.56.95l.19.42c.24-.28.49-.56.77-.85s.63-.42,1.07-.42c.73,0,1.36.54,1.9,1.63s.8,2.82.8,5.19-.41,4.07-1.22,5.44-1.9,2.05-3.26,2.05-2.34-.85-3.11-2.56-1.16-4.13-1.16-7.27c0-1.72.21-3.44.63-5.15s1.07-3.24,1.96-4.6,2.01-2.47,3.38-3.35,3.02-1.31,4.95-1.31c2.3,0,4.19.49,5.65,1.48s2.6,2.26,3.41,3.81,1.37,3.32,1.67,5.3.46,3.97.46,5.97v16.57c0,2.57.04,4.31.11,5.23s.35,1.38.84,1.38c.38,0,.65-.42.81-1.25s.23-2.27.23-4.3v-5.3h2.12v5.38c0,2.54-.09,4.79-.28,6.76s-.54,3.64-1.06,5.04-1.23,2.46-2.12,3.18-2.03,1.08-3.42,1.08c-1.25,0-2.29-.3-3.11-.91s-1.48-1.36-1.96-2.27-.83-1.84-1.03-2.82-.31-1.84-.31-2.61h-.3c-.07,1.16-.29,2.26-.64,3.3s-.84,1.97-1.47,2.78-1.38,1.45-2.25,1.95-1.87.74-2.98.74-2.04-.23-2.91-.7-1.62-1.2-2.23-2.2c-.61-1-1.09-2.3-1.43-3.9s-.51-3.5-.51-5.7c0-2.71.33-4.85,1-6.42s1.51-2.81,2.53-3.73,2.12-1.67,3.32-2.25,2.3-1.28,3.32-2.1,1.86-1.88,2.53-3.18,1-3.14,1-5.51c0-2.12-.29-3.82-.87-5.11s-1.54-1.93-2.86-1.93ZM274.2,383.15c-.27.9-.61,1.63-1.02,2.18s-.8,1.09-1.18,1.61-.71,1.14-.99,1.86-.42,1.69-.42,2.9c0,.93.11,1.77.33,2.52s.66,1.12,1.3,1.12c.58,0,1.06-.52,1.42-1.55s.55-2.48.55-4.34v-6.31Z"/>
    <path class="cls-1" d="M314.98,343.2v43.21c0,1.16.14,2.03.42,2.61s.67.87,1.18.87h1.06v15.72h-12.49v-7.71h-.3c-.2,1.21-.49,2.37-.87,3.47s-.85,2.07-1.41,2.9-1.22,1.5-1.98,1.99-1.63.74-2.59.74c-3.04,0-5.33-2.1-6.9-6.29-1.56-4.19-2.34-10.34-2.34-18.45s.84-14.12,2.51-18.05,3.97-5.89,6.9-5.89c.78,0,1.48.14,2.1.42s1.18.64,1.69,1.08.99.93,1.45,1.48.92,1.08,1.38,1.59v-1.53c0-1.53-.11-2.61-.34-3.24s-.67-.95-1.33-.95h-.99v-13.98h12.86ZM299.33,382.68c0,1.53.04,2.97.11,4.32s.21,2.54.42,3.56.48,1.81.82,2.37.79.85,1.35.85,1.02-.27,1.38-.8.64-1.29.85-2.25.34-2.1.42-3.43.11-2.74.11-4.24v-9.58c-.31-.68-.72-1.25-1.25-1.72s-1.02-.7-1.51-.7c-.56,0-1.01.32-1.35.95s-.61,1.49-.82,2.56-.34,2.32-.42,3.73-.11,2.87-.11,4.36Z"/>
    <path class="cls-1" d="M356.11,365.86h-6.13c-.1-1.44-.32-2.78-.66-4.02s-.76-2.32-1.25-3.22-1.05-1.6-1.65-2.1-1.23-.74-1.88-.74c-.78,0-1.41.34-1.9,1.02s-.72,1.62-.72,2.84.22,2.1.65,2.82,1,1.34,1.71,1.86,1.51,1.02,2.42,1.5,1.82,1.07,2.76,1.78,1.86,1.56,2.76,2.56,1.71,2.29,2.42,3.86,1.28,3.48,1.71,5.74.65,4.97.65,8.13c0,3.36-.32,6.23-.95,8.6s-1.48,4.32-2.55,5.85c-1.07,1.53-2.29,2.64-3.68,3.35s-2.82,1.06-4.31,1.06-2.83-.38-4.15-1.14-2.67-2.01-4.04-3.73v3.73h-6.13v-23.09h6.13c.36,3.3,1.08,5.91,2.16,7.82s2.29,2.86,3.64,2.86c.9,0,1.58-.39,2.03-1.17s.67-1.66.67-2.65c0-1.55-.37-2.75-1.11-3.6s-1.65-1.6-2.74-2.27-2.28-1.41-3.58-2.25-2.49-2.03-3.58-3.6-2-3.64-2.74-6.21-1.11-5.93-1.11-10.08c0-3.08.29-5.8.87-8.18s1.36-4.37,2.34-6,2.11-2.85,3.39-3.69,2.64-1.25,4.06-1.25c1.97,0,3.66.52,5.07,1.57s2.51,2.15,3.29,3.3v-3.94h6.13v22.67Z"/>
    <path class="cls-1" d="M371.7,343.2v15.72h5.56v15.72h-5.56v13.01c0,1.86.11,3.39.34,4.58s.7,1.78,1.42,1.78c.4,0,.72-.18.96-.53s.43-.82.58-1.4.23-1.24.27-1.99.06-1.56.06-2.44v-6.31h2.14v6.82c0,2.74-.13,5.3-.38,7.67s-.69,4.42-1.3,6.14-1.45,3.09-2.5,4.11-2.38,1.53-3.98,1.53c-1.77,0-3.18-.49-4.24-1.48s-1.85-2.34-2.4-4.07-.9-3.77-1.07-6.14-.25-4.96-.25-7.75v-13.52h-2.92v-13.98c.93,0,1.79-.46,2.59-1.38s1.49-2.19,2.06-3.81,1.02-3.48,1.34-5.57.47-4.32.47-6.69h6.8Z"/>
    <path class="cls-1" d="M388.52,364.8c-.63,0-1.17.11-1.63.32s-.84.46-1.16.74-.59.6-.8.95-.4.67-.56.95l.19.42c.24-.28.49-.56.77-.85s.63-.42,1.07-.42c.73,0,1.36.54,1.9,1.63s.8,2.82.8,5.19-.41,4.07-1.22,5.44-1.9,2.05-3.26,2.05-2.34-.85-3.11-2.56-1.16-4.13-1.16-7.27c0-1.72.21-3.44.63-5.15s1.07-3.24,1.96-4.6,2.01-2.47,3.38-3.35,3.02-1.31,4.95-1.31c2.3,0,4.19.49,5.65,1.48s2.6,2.26,3.41,3.81,1.37,3.32,1.67,5.3.46,3.97.46,5.97v16.57c0,2.57.04,4.31.11,5.23s.35,1.38.84,1.38c.38,0,.65-.42.81-1.25s.23-2.27.23-4.3v-5.3h2.12v5.38c0,2.54-.09,4.79-.28,6.76s-.54,3.64-1.06,5.04-1.23,2.46-2.12,3.18-2.03,1.08-3.42,1.08c-1.25,0-2.29-.3-3.11-.91s-1.48-1.36-1.96-2.27-.83-1.84-1.03-2.82-.31-1.84-.31-2.61h-.3c-.07,1.16-.29,2.26-.64,3.3s-.84,1.97-1.47,2.78-1.38,1.45-2.25,1.95-1.87.74-2.98.74-2.04-.23-2.91-.7-1.62-1.2-2.23-2.2c-.61-1-1.09-2.3-1.43-3.9-.34-1.6-.51-3.5-.51-5.7,0-2.71.33-4.85,1-6.42s1.51-2.81,2.53-3.73,2.12-1.67,3.32-2.25,2.3-1.28,3.32-2.1,1.86-1.88,2.53-3.18,1-3.14,1-5.51c0-2.12-.29-3.82-.87-5.11s-1.54-1.93-2.86-1.93ZM392.26,383.15c-.27.9-.61,1.63-1.02,2.18s-.8,1.09-1.18,1.61-.71,1.14-.99,1.86-.42,1.69-.42,2.9c0,.93.11,1.77.33,2.52s.66,1.12,1.3,1.12c.58,0,1.06-.52,1.42-1.55s.55-2.48.55-4.34v-6.31Z"/>
    <path class="cls-1" d="M420.04,343.2v15.72h5.56v15.72h-5.56v13.01c0,1.86.11,3.39.34,4.58s.7,1.78,1.42,1.78c.4,0,.72-.18.96-.53s.43-.82.58-1.4.23-1.24.27-1.99.06-1.56.06-2.44v-6.31h2.14v6.82c0,2.74-.13,5.3-.38,7.67s-.69,4.42-1.3,6.14c-.61,1.72-1.45,3.09-2.5,4.11s-2.38,1.53-3.98,1.53c-1.77,0-3.18-.49-4.24-1.48s-1.85-2.34-2.4-4.07-.9-3.77-1.07-6.14-.25-4.96-.25-7.75v-13.52h-2.92v-13.98c.93,0,1.79-.46,2.59-1.38s1.49-2.19,2.06-3.81,1.02-3.48,1.34-5.57.47-4.32.47-6.69h6.8Z"/>
    <path class="cls-1" d="M440.67,358.92v26.4c0,1.89.2,3.13.61,3.71s.93.87,1.56.87h.5v15.72h-15.65v-15.72h.72c.66,0,1.14-.47,1.46-1.42s.47-1.97.47-3.07v-5.97c0-1.64-.23-2.85-.68-3.62s-.98-1.17-1.57-1.17h-.41v-15.72h12.97ZM430.06,348.49c0-2.43.41-4.51,1.22-6.23s1.97-2.58,3.47-2.58,2.7.86,3.52,2.58,1.24,3.8,1.24,6.23-.41,4.58-1.24,6.29c-.82,1.71-2,2.56-3.52,2.56s-2.65-.85-3.47-2.56-1.22-3.81-1.22-6.29Z"/>
    <path class="cls-1" d="M444.48,382.18c0-4.15.32-7.8.95-10.93s1.53-5.75,2.7-7.86,2.58-3.69,4.23-4.77,3.49-1.61,5.52-1.61,3.87.54,5.52,1.61,3.05,2.66,4.22,4.77,2.07,4.72,2.7,7.86.96,6.78.96,10.93-.32,7.73-.96,10.89-1.54,5.81-2.7,7.94-2.57,3.74-4.22,4.81-3.49,1.61-5.52,1.61-3.87-.54-5.52-1.61-3.06-2.68-4.23-4.81-2.07-4.78-2.7-7.94-.95-6.79-.95-10.89ZM455.06,382.18c0,2.37.05,4.39.14,6.04s.24,2.98.46,3.98.5,1.74.85,2.2.82.7,1.38.7,1.01-.23,1.37-.7.64-1.2.85-2.2.37-2.33.46-3.98c.09-1.65.13-3.66.13-6.04,0-4.75-.2-8.07-.59-9.98s-1.13-2.86-2.22-2.86c-.56,0-1.02.22-1.38.66s-.64,1.16-.85,2.16-.36,2.33-.46,3.98-.14,3.66-.14,6.04Z"/>
    <path class="cls-1" d="M490.7,378.53c0-1.1-.06-1.98-.18-2.65s-.27-1.17-.45-1.53-.38-.59-.6-.7-.44-.17-.65-.17c-.81,0-1.41.54-1.8,1.61s-.59,2.6-.59,4.58v6.06c0,1.5.11,2.56.34,3.2s.67.95,1.33.95h1v15.72h-15.54v-15.72h1.1c.51,0,.9-.37,1.16-1.12s.4-1.65.4-2.69v-8.05c0-1.33-.17-2.22-.51-2.69s-.73-.7-1.16-.7h-.99v-15.72h11.04l-.39,11.65h.32c.27-4.35,1.11-7.7,2.51-10.04,1.4-2.34,3.3-3.52,5.71-3.52,1.7,0,3.08.55,4.14,1.65s1.89,2.49,2.48,4.17.99,3.5,1.2,5.47.32,3.81.32,5.53v11.91c0,1.5.11,2.56.34,3.2s.67.95,1.33.95h1v15.72h-12.86v-27.07Z"/>
  </g>
  <g>
    <path class="cls-1" d="M136.07,145.66c0,11.42-2.3,17.67-6.89,18.74v.59c2.4.14,4.29,1.84,5.67,5.09s2.07,7.94,2.07,14.08c0,2.57-.12,5.1-.35,7.58s-.74,4.69-1.52,6.61-1.9,3.5-3.37,4.71-3.45,1.82-5.93,1.82h-22.77v-19.87c1.21,0,2.08-.42,2.61-1.26s.79-2.42.79-4.74v-27.1c0-2.36-.26-3.95-.79-4.79s-1.39-1.26-2.61-1.26v-19.87h24.19c1.9,0,3.44.55,4.62,1.66s2.08,2.57,2.71,4.39c.63,1.82,1.06,3.92,1.26,6.29s.31,4.81.31,7.31ZM118.58,160.23h3.13c.86,0,1.47-.71,1.85-2.12s.57-3.11.57-5.11c0-1.89-.19-3.55-.57-4.98s-1-2.14-1.85-2.14h-3.13v14.35ZM121.67,185.02c1.16,0,1.96-.58,2.4-1.74s.66-3.1.66-5.81-.22-4.69-.66-5.92-1.24-1.85-2.4-1.85h-3.08v15.32h3.08Z"/>
    <path class="cls-1" d="M151.76,145.87l-.35,14.73h.35c.48-5.64,1.29-9.91,2.41-12.8,1.12-2.89,2.58-4.34,4.38-4.34,1.06,0,1.98.44,2.74,1.31s1.38,2.04,1.85,3.51c.47,1.46.81,3.15,1.01,5.06.21,1.91.31,3.88.31,5.92,0,1.68-.1,3.34-.29,4.98s-.5,3.12-.93,4.44-.98,2.38-1.66,3.19-1.51,1.2-2.5,1.2c-1.38,0-2.47-.91-3.26-2.73s-1.19-4.02-1.19-6.59c0-1.25.06-2.31.17-3.19s.22-1.59.34-2.14.2-.95.24-1.2,0-.37-.14-.37c-.29,0-.6.86-.94,2.57s-.51,4.41-.51,8.09v12.26c0,1.89.13,3.24.38,4.04s.75,1.2,1.48,1.2h1.24v19.87h-17.43v-19.87h1.22c.57,0,1-.47,1.29-1.42s.44-2.08.44-3.4v-10.17c0-1.68-.19-2.81-.57-3.4s-.81-.88-1.29-.88h-1.1v-19.87h12.29Z"/>
    <path class="cls-1" d="M177.46,178.7c.06,5.32.44,8.99,1.17,11s1.76,3.03,3.11,3.03c.46,0,.9-.17,1.33-.51s.84-.89,1.21-1.66.69-1.78.96-3.05.44-2.86.53-4.79h7.53c-.28,4.61-.78,8.46-1.52,11.57-.74,3.11-1.69,5.61-2.85,7.52s-2.51,3.28-4.05,4.12-3.25,1.26-5.14,1.26-3.77-.64-5.48-1.93-3.21-3.24-4.5-5.86c-1.29-2.62-2.3-5.93-3.03-9.91s-1.1-8.72-1.1-14.22.34-9.85,1.03-13.82,1.66-7.27,2.91-9.93,2.72-4.67,4.43-6.02c1.7-1.36,3.58-2.03,5.62-2.03,2.51,0,4.67.86,6.48,2.57s3.28,4.11,4.43,7.18,1.99,6.77,2.52,11.08c.54,4.32.79,9.12.77,14.4h-16.37ZM180.53,157.92c-.97,0-1.68.88-2.14,2.65s-.77,4.69-.92,8.76h6.06c-.08-3.5-.37-6.27-.87-8.33s-1.21-3.08-2.13-3.08Z"/>
    <path class="cls-1" d="M206.62,153.32c-.7,0-1.31.13-1.81.4s-.93.58-1.29.94-.66.76-.89,1.2-.44.85-.62,1.2l.21.54c.26-.36.55-.71.86-1.07s.71-.54,1.19-.54c.81,0,1.52.69,2.11,2.06s.89,3.56.89,6.56-.45,5.15-1.36,6.88-2.11,2.6-3.63,2.6-2.6-1.08-3.47-3.24-1.29-5.22-1.29-9.18c0-2.18.23-4.35.7-6.51s1.2-4.1,2.18-5.81,2.24-3.12,3.77-4.23,3.36-1.66,5.52-1.66c2.57,0,4.66.62,6.29,1.87s2.89,2.86,3.8,4.82,1.52,4.19,1.86,6.69.51,5.02.51,7.55v20.94c0,3.25.04,5.45.12,6.61s.39,1.74.93,1.74c.43,0,.73-.53.9-1.58s.26-2.86.26-5.44v-6.69h2.36v6.8c0,3.21-.1,6.06-.31,8.54s-.6,4.61-1.18,6.37-1.37,3.11-2.36,4.02-2.26,1.37-3.81,1.37c-1.39,0-2.55-.38-3.47-1.15s-1.65-1.72-2.18-2.86-.92-2.33-1.15-3.56-.34-2.33-.34-3.29h-.33c-.08,1.46-.32,2.86-.71,4.18-.39,1.32-.94,2.49-1.63,3.51s-1.53,1.84-2.5,2.46-2.08.94-3.32.94-2.27-.29-3.24-.88-1.8-1.52-2.48-2.78-1.21-2.91-1.59-4.93-.57-4.42-.57-7.2c0-3.43.37-6.13,1.12-8.11s1.68-3.55,2.81-4.71,2.36-2.11,3.69-2.84,2.56-1.62,3.69-2.65,2.07-2.37,2.81-4.02,1.12-3.96,1.12-6.96c0-2.68-.32-4.83-.97-6.45s-1.71-2.44-3.19-2.44ZM210.78,176.5c-.3,1.14-.68,2.06-1.14,2.76s-.89,1.37-1.31,2.03-.79,1.45-1.1,2.36-.47,2.13-.47,3.67c0,1.18.12,2.24.37,3.19s.73,1.42,1.45,1.42c.65,0,1.18-.65,1.58-1.95s.61-3.13.61-5.49v-7.98Z"/>
    <path class="cls-1" d="M256.19,126.01v54.62c0,1.46.16,2.56.47,3.29s.75,1.1,1.31,1.1h1.18v19.87h-13.91v-9.75h-.33c-.22,1.54-.54,3-.97,4.39s-.95,2.61-1.57,3.67-1.36,1.89-2.2,2.52-1.81.94-2.89.94c-3.38,0-5.94-2.65-7.68-7.95s-2.61-13.07-2.61-23.32.93-17.85,2.79-22.81c1.86-4.96,4.42-7.44,7.68-7.44.87,0,1.65.18,2.34.54s1.32.81,1.88,1.37,1.1,1.18,1.61,1.87,1.02,1.37,1.53,2.01v-1.93c0-1.93-.13-3.29-.38-4.1s-.75-1.2-1.48-1.2h-1.1v-17.67h14.32ZM238.76,175.92c0,1.93.04,3.75.12,5.46s.24,3.21.47,4.5.53,2.28.91,3,.88,1.07,1.5,1.07,1.13-.34,1.53-1.02.71-1.62.94-2.84.38-2.66.47-4.34.12-3.46.12-5.35v-12.1c-.34-.86-.81-1.58-1.39-2.17s-1.14-.88-1.68-.88c-.62,0-1.12.4-1.5,1.2s-.68,1.88-.91,3.24-.38,2.93-.47,4.71-.12,3.62-.12,5.52Z"/>
    <path class="cls-1" d="M304.09,155.73h-6.83c-.11-1.82-.36-3.52-.73-5.09s-.85-2.93-1.4-4.07-1.17-2.03-1.84-2.65-1.37-.94-2.09-.94c-.87,0-1.57.43-2.11,1.29s-.81,2.05-.81,3.59.24,2.65.72,3.56,1.12,1.7,1.9,2.36,1.68,1.29,2.69,1.9,2.03,1.36,3.07,2.25,2.07,1.97,3.07,3.24,1.9,2.89,2.69,4.87,1.42,4.4,1.9,7.26.72,6.28.72,10.28c0,4.25-.35,7.87-1.06,10.87s-1.65,5.46-2.84,7.39c-1.19,1.93-2.55,3.34-4.1,4.23s-3.15,1.34-4.8,1.34-3.16-.48-4.63-1.45-2.97-2.53-4.5-4.71v4.71h-6.83v-29.18h6.83c.4,4.18,1.2,7.47,2.4,9.88s2.55,3.61,4.06,3.61c1.01,0,1.76-.49,2.26-1.47s.75-2.1.75-3.35c0-1.96-.41-3.48-1.23-4.55s-1.84-2.03-3.05-2.86-2.54-1.78-3.98-2.84-2.77-2.57-3.98-4.55-2.23-4.6-3.05-7.84c-.82-3.25-1.23-7.5-1.23-12.74,0-3.89.32-7.34.97-10.34.65-3,1.52-5.52,2.61-7.58s2.35-3.61,3.78-4.66,2.94-1.58,4.52-1.58c2.19,0,4.08.66,5.65,1.98,1.57,1.32,2.79,2.71,3.66,4.18v-4.98h6.83v28.65Z"/>
    <path class="cls-1" d="M321.45,127.08v19.87h6.19v19.87h-6.19v16.44c0,2.36.13,4.28.38,5.78s.78,2.25,1.58,2.25c.44,0,.8-.22,1.07-.67s.48-1.04.64-1.77.26-1.57.3-2.52.06-1.97.06-3.08v-7.98h2.38v8.62c0,3.46-.14,6.69-.42,9.69s-.77,5.59-1.45,7.76-1.61,3.91-2.78,5.19c-1.17,1.29-2.65,1.93-4.43,1.93-1.97,0-3.55-.62-4.72-1.87s-2.06-2.96-2.67-5.14-1-4.77-1.19-7.76-.28-6.27-.28-9.8v-17.08h-3.25v-17.67c1.03,0,2-.58,2.89-1.74s1.66-2.77,2.3-4.82,1.14-4.4,1.49-7.04.53-5.46.53-8.46h7.57Z"/>
    <path class="cls-1" d="M340.18,154.39c-.7,0-1.31.13-1.81.4s-.93.58-1.29.94-.66.76-.89,1.2-.44.85-.62,1.2l.21.54c.26-.36.55-.71.86-1.07s.71-.54,1.19-.54c.81,0,1.52.69,2.11,2.06s.89,3.56.89,6.56-.45,5.15-1.36,6.88-2.11,2.6-3.63,2.6-2.6-1.08-3.47-3.24-1.29-5.22-1.29-9.18c0-2.18.23-4.35.7-6.51s1.2-4.1,2.18-5.81,2.24-3.12,3.77-4.23,3.36-1.66,5.52-1.66c2.57,0,4.66.62,6.29,1.87s2.89,2.86,3.8,4.82,1.52,4.19,1.86,6.69.51,5.02.51,7.55v20.94c0,3.25.04,5.45.12,6.61s.39,1.74.93,1.74c.43,0,.73-.53.9-1.58s.26-2.86.26-5.44v-6.69h2.36v6.8c0,3.21-.1,6.06-.31,8.54s-.6,4.61-1.18,6.37-1.37,3.11-2.36,4.02-2.26,1.37-3.81,1.37c-1.39,0-2.55-.38-3.47-1.15s-1.65-1.72-2.18-2.86-.92-2.33-1.15-3.56-.34-2.33-.34-3.29h-.33c-.08,1.46-.32,2.86-.71,4.18s-.94,2.49-1.63,3.51-1.53,1.84-2.5,2.46-2.08.94-3.32.94-2.27-.29-3.24-.88-1.8-1.52-2.48-2.78-1.21-2.91-1.59-4.93-.57-4.42-.57-7.2c0-3.43.37-6.13,1.12-8.11s1.68-3.55,2.81-4.71,2.36-2.11,3.69-2.84,2.56-1.62,3.69-2.65,2.07-2.37,2.81-4.02,1.12-3.96,1.12-6.96c0-2.68-.32-4.83-.97-6.45-.65-1.62-1.71-2.44-3.19-2.44ZM344.34,177.58c-.3,1.14-.68,2.06-1.14,2.76s-.89,1.37-1.31,2.03-.79,1.45-1.1,2.36-.47,2.13-.47,3.67c0,1.18.12,2.24.37,3.19s.73,1.42,1.45,1.42c.65,0,1.18-.65,1.58-1.95s.61-3.13.61-5.49v-7.98Z"/>
    <path class="cls-1" d="M375.28,127.08v19.87h6.19v19.87h-6.19v16.44c0,2.36.13,4.28.38,5.78s.78,2.25,1.58,2.25c.44,0,.8-.22,1.07-.67s.48-1.04.64-1.77.26-1.57.3-2.52c.04-.95.06-1.97.06-3.08v-7.98h2.38v8.62c0,3.46-.14,6.69-.42,9.69-.28,3-.77,5.59-1.45,7.76-.68,2.18-1.61,3.91-2.78,5.19-1.17,1.29-2.65,1.93-4.43,1.93-1.97,0-3.55-.62-4.72-1.87s-2.06-2.96-2.67-5.14-1-4.77-1.19-7.76-.28-6.27-.28-9.8v-17.08h-3.25v-17.67c1.03,0,2-.58,2.89-1.74s1.66-2.77,2.3-4.82c.64-2.05,1.14-4.4,1.49-7.04s.53-5.46.53-8.46h7.57Z"/>
    <path class="cls-1" d="M398.26,146.95v33.36c0,2.39.23,3.95.68,4.69s1.03,1.1,1.74,1.1h.56v19.87h-17.43v-19.87h.81c.73,0,1.27-.6,1.62-1.79s.53-2.49.53-3.88v-7.55c0-2.07-.25-3.6-.76-4.58s-1.09-1.47-1.75-1.47h-.46v-19.87h14.45ZM386.44,133.77c0-3.07.45-5.69,1.36-7.87s2.19-3.27,3.86-3.27,3,1.09,3.92,3.27,1.38,4.8,1.38,7.87-.46,5.79-1.38,7.95-2.22,3.24-3.92,3.24-2.96-1.08-3.86-3.24-1.36-4.81-1.36-7.95Z"/>
    <path class="cls-1" d="M402.5,176.34c0-5.25.35-9.85,1.06-13.82.7-3.96,1.71-7.27,3.01-9.93,1.3-2.66,2.87-4.67,4.71-6.02s3.88-2.03,6.15-2.03,4.31.68,6.15,2.03,3.4,3.36,4.7,6.02,2.3,5.97,3.01,9.93c.71,3.96,1.07,8.57,1.07,13.82s-.36,9.76-1.07,13.76c-.71,4-1.71,7.35-3.01,10.04s-2.86,4.72-4.7,6.08-3.88,2.03-6.15,2.03-4.31-.68-6.15-2.03-3.4-3.38-4.71-6.08-2.31-6.04-3.01-10.04c-.7-4-1.06-8.59-1.06-13.76ZM414.27,176.34c0,3,.05,5.54.16,7.63s.27,3.77.51,5.03.55,2.2.95,2.78.91.88,1.53.88,1.13-.29,1.52-.88.71-1.52.95-2.78.41-2.95.51-5.03.14-4.63.14-7.63c0-6-.22-10.2-.65-12.61-.43-2.41-1.26-3.61-2.47-3.61-.62,0-1.13.28-1.53.83s-.72,1.46-.95,2.73-.4,2.95-.51,5.03-.16,4.63-.16,7.63Z"/>
    <path class="cls-1" d="M453.97,171.74c0-1.39-.07-2.51-.2-3.35s-.3-1.48-.5-1.93-.42-.74-.67-.88-.49-.21-.72-.21c-.9,0-1.57.68-2.01,2.03s-.66,3.28-.66,5.78v7.66c0,1.89.13,3.24.38,4.04s.75,1.2,1.48,1.2h1.12v19.87h-17.3v-19.87h1.22c.57,0,1-.47,1.29-1.42s.44-2.08.44-3.4v-10.17c0-1.68-.19-2.81-.57-3.4s-.81-.88-1.29-.88h-1.1v-19.87h12.29l-.43,14.73h.35c.3-5.5,1.23-9.73,2.79-12.69,1.56-2.96,3.68-4.44,6.35-4.44,1.89,0,3.43.7,4.62,2.09s2.11,3.15,2.76,5.27,1.1,4.43,1.33,6.91.35,4.81.35,6.99v15.05c0,1.89.13,3.24.38,4.04s.75,1.2,1.48,1.2h1.12v19.87h-14.32v-34.22Z"/>
    <g>
      <path class="cls-1" d="M76.79,65.56v20.12h-5.53c0-1.53-.02-2.87-.06-4s-.13-2.05-.26-2.75-.34-1.21-.61-1.54-.64-.5-1.1-.5h-1.04v22.66c0,1.49.21,2.5.64,3.04s1.13.81,2.12.81v12.74h-15.4v-12.74c.99,0,1.69-.27,2.11-.81s.63-1.55.63-3.04v-22.66h-1.02c-.46,0-.83.17-1.1.5s-.48.85-.62,1.54-.23,1.61-.26,2.75-.05,2.47-.05,4h-5.54v-20.12h27.11Z"/>
      <path class="cls-1" d="M96.09,76.75c1.48,0,2.68.45,3.6,1.34s1.65,2.02,2.17,3.38.88,2.84,1.07,4.43.29,3.08.29,4.48v9.65c0,1.21.1,2.08.31,2.59s.61.77,1.2.77h.91v12.74h-11.62v-21.93c0-.89-.05-1.61-.16-2.15s-.24-.95-.4-1.24-.34-.47-.55-.57-.4-.14-.59-.14c-.73,0-1.27.43-1.63,1.3s-.54,2.11-.54,3.71v4.91c0,1.21.1,2.08.31,2.59s.61.77,1.2.77h1.24v12.74h-14.38v-12.74h.99c.46,0,.81-.3,1.05-.91s.36-1.33.36-2.18l-.03-18.12c0-1.33-.2-2.31-.61-2.93s-.88-.94-1.42-.94h-.34v-12.74h11.62v12.74c0,.43-.07,1.19-.2,2.27s-.39,2.15-.76,3.23l.34.34c.6-2.24,1.42-4.03,2.44-5.37s2.4-2.01,4.13-2.01Z"/>
      <path class="cls-1" d="M116.24,99.34c.04,3.41.36,5.76.95,7.05s1.43,1.94,2.53,1.94c.37,0,.73-.11,1.08-.33s.68-.57.98-1.06.56-1.14.78-1.96.36-1.84.43-3.07h6.11c-.22,2.95-.64,5.42-1.23,7.41s-1.37,3.6-2.31,4.82-2.04,2.11-3.28,2.64-2.64.81-4.17.81-3.06-.41-4.45-1.24-2.61-2.08-3.65-3.76-1.87-3.8-2.46-6.35-.89-5.59-.89-9.11.28-6.32.84-8.86,1.35-4.66,2.36-6.37,2.21-2.99,3.59-3.86,2.9-1.3,4.56-1.3c2.04,0,3.79.55,5.26,1.65s2.67,2.63,3.59,4.6,1.61,4.34,2.05,7.11.64,5.85.62,9.23h-13.29ZM118.73,86.02c-.78,0-1.36.57-1.74,1.7s-.62,3-.75,5.61h4.92c-.07-2.24-.3-4.02-.71-5.34s-.98-1.97-1.73-1.97Z"/>
    </g>
  </g>
</svg>